<?xml version="1.0" standalone="no"?>
<!DOCTYPE svg PUBLIC "-//W3C//DTD SVG 20010904//EN"
 "http://www.w3.org/TR/2001/REC-SVG-20010904/DTD/svg10.dtd">
<svg version="1.0" xmlns="http://www.w3.org/2000/svg"
 width="1890.000000pt" height="1890.000000pt" viewBox="0 0 1890.000000 1890.000000"
 preserveAspectRatio="xMidYMid meet">
<metadata>
Created by potrace 1.14, written by Peter Selinger 2001-2017
</metadata>
<g transform="translate(0.000000,1890.000000) scale(0.100000,-0.100000)"
fill="#000000" stroke="none">
<path d="M9129 16226 c-2 -2 -60 -7 -129 -11 -69 -3 -138 -8 -155 -10 -16 -2
-61 -6 -100 -10 -38 -4 -83 -8 -100 -10 -16 -2 -55 -7 -85 -10 -30 -3 -66 -8
-80 -10 -14 -2 -45 -6 -70 -10 -79 -12 -103 -15 -215 -35 -111 -20 -140 -25
-185 -35 -14 -3 -34 -7 -45 -9 -271 -51 -765 -194 -1045 -303 -549 -212 -965
-425 -1429 -731 -223 -148 -577 -414 -687 -517 -6 -5 -42 -37 -79 -70 -867
-759 -1549 -1772 -1923 -2855 -28 -80 -55 -161 -60 -180 -6 -19 -24 -80 -40
-135 -53 -176 -148 -583 -166 -713 -2 -15 -11 -72 -19 -127 -24 -154 -29 -196
-43 -330 -3 -38 -8 -81 -10 -95 -25 -204 -25 -897 0 -1150 2 -19 7 -63 10 -97
3 -33 8 -76 10 -95 3 -18 8 -58 11 -88 31 -255 118 -686 186 -915 11 -38 30
-101 41 -140 50 -168 187 -549 243 -670 7 -16 34 -77 60 -135 96 -216 213
-438 382 -725 70 -118 310 -475 333 -495 4 -3 33 -41 65 -85 249 -341 674
-788 1041 -1095 55 -45 109 -90 121 -100 24 -21 224 -174 264 -203 13 -9 51
-37 84 -60 81 -58 337 -226 405 -266 30 -18 75 -45 100 -60 238 -145 662 -352
970 -473 155 -61 435 -163 475 -172 44 -11 103 -28 120 -36 16 -7 120 -36 195
-55 8 -2 69 -17 135 -34 188 -47 455 -101 575 -116 30 -4 58 -9 61 -11 4 -2
31 -6 60 -9 30 -3 63 -8 74 -10 11 -2 49 -7 85 -10 36 -3 75 -8 87 -11 12 -2
51 -7 85 -10 35 -3 81 -7 103 -9 268 -26 1056 -26 1215 -1 14 3 57 7 95 11
129 11 221 22 266 30 8 2 40 6 70 9 30 3 117 17 194 31 77 14 151 28 165 29
99 14 478 108 670 166 74 22 146 43 159 46 14 3 29 8 35 12 6 4 13 7 16 8 3 0
12 3 20 6 8 3 51 18 95 33 79 27 241 88 280 105 11 4 54 22 95 38 385 156 879
421 1242 667 498 338 917 705 1323 1159 39 43 81 92 95 109 14 17 42 51 64 76
21 25 46 55 55 67 162 193 474 653 618 914 11 19 33 60 50 90 74 134 208 410
273 565 5 11 18 41 29 67 12 26 21 50 21 53 0 3 8 25 19 48 98 220 250 724
322 1072 29 138 28 134 35 179 3 22 7 43 9 46 2 3 6 29 10 59 4 30 8 61 10 70
1 9 6 39 9 66 4 28 8 61 11 75 2 14 6 45 9 70 3 25 8 70 11 100 22 200 30 379
30 695 0 258 -7 473 -19 565 -2 14 -7 59 -11 100 -4 41 -9 86 -10 100 -2 14
-7 54 -10 90 -4 36 -9 67 -10 70 -2 3 -6 29 -10 59 -4 30 -9 63 -11 75 -3 12
-7 39 -10 61 -3 22 -10 56 -14 75 -5 19 -12 53 -15 75 -4 22 -11 60 -17 85 -5
25 -11 52 -13 60 -32 146 -84 345 -127 482 -11 37 -19 69 -17 71 2 2 -1 10 -7
18 -6 8 -14 28 -18 44 -11 45 -97 283 -154 425 -387 962 -1008 1837 -1809
2548 -39 34 -84 72 -99 84 -16 13 -36 29 -44 37 -34 33 -264 212 -380 297
-435 315 -906 581 -1400 789 -69 28 -159 65 -200 80 -41 16 -79 32 -85 35 -5
4 -22 10 -37 14 -15 3 -40 11 -55 18 -15 6 -30 12 -33 13 -3 0 -61 20 -130 43
-268 89 -612 178 -900 233 -30 6 -75 15 -100 20 -25 5 -65 11 -90 14 -25 3
-52 8 -60 10 -8 2 -37 7 -65 10 -27 3 -63 7 -80 10 -16 2 -52 7 -80 10 -27 3
-63 8 -80 10 -16 2 -55 6 -85 9 -81 8 -198 18 -255 23 -65 5 -792 13 -796 9z"/>
</g>
</svg>
